<svg height="512pt" viewBox="0 0 512.09015 512" width="512pt" xmlns="http://www.w3.org/2000/svg"><path d="m477.859375.046875h-375.46875c-18.851563 0-34.132813 15.28125-34.132813 34.132813v129.175781c-.5625.640625-1.167968 1.222656-1.707031 1.929687-6.953125 9.617188-14.589843 18.71875-22.859375 27.230469-4.683594 4.523437-9.667968 8.722656-14.925781 12.570313l-3.15625 2.429687c-15.019531 11.746094-23.808594 29.742187-23.824219 48.8125-.273437 7.515625 0 15.488281.3125 23.183594.257813 6.828125.53125 13.917969.378906 20.480469-.121093 4.566406-.503906 11.640624-.933593 19.625-.972657 17.75-2.0625 37.972656-1.269531 47.992187.160156 15.375 5.53125 30.242187 15.230468 42.171875 2.707032 3.875 5.871094 8.40625 9.566406 14.414062 1.484376 2.398438 3.074219 4.820313 4.6875 7.269532 6.992188 8.539062 11.460938 18.863281 12.902344 29.808594v25.171874c0 14.136719 11.460938 25.601563 25.597656 25.601563h102.402344c14.136719 0 25.597656-11.464844 25.597656-25.601563v-34.132812c.230469-3.203125 2.042969-6.085938 4.832032-7.679688 19.214844-12.253906 19.882812-47.445312 20.570312-84.710937v-1.476563h17.265625v54.707032c0 30.71875 24.855469 46.078125 35.550781 51.199218 3.941407 1.605469 6.679688 5.253907 7.113282 9.488282v10.898437c.257812 15.308594 12.855468 27.519531 28.160156 27.308594h115.203125c14.914063.027344 27.082031-11.933594 27.304687-26.847656.089844-1.054688.089844-2.113281 0-3.164063-.0625-1.058594-.0625-2.117187 0-3.175781.035157-1.847656.6875-3.632813 1.859376-5.0625.753906-.707031 2.449218-1.996094 4.636718-3.683594 9.070313-6.464843 17.320313-14.015625 24.558594-22.488281 19.851562-29.371094 29.894531-64.277344 28.679688-99.710938v-313.734374c0-18.851563-15.28125-34.132813-34.132813-34.132813zm17.066406 34.132813v209.421874c-3.324219-1.980468-6.972656-3.355468-10.777343-4.058593-8.839844-1.554688-17.933594.417969-25.335938 5.492187-2.664062-7.734375-8.019531-14.257812-15.085938-18.378906v-209.542969h34.132813c9.425781 0 17.066406 7.640625 17.066406 17.066407zm-392.535156-17.066407h34.132813v324.265625h-34.132813c-9.425781 0-17.066406-7.640625-17.066406-17.066406v-63.53125c8.824219-9.121094 16.597656-19.199219 23.175781-30.046875 7.347656-12.042969 11.109375-25.925781 10.855469-40.027344-.546875-13.132812-7.484375-25.167969-18.578125-32.222656l-1.328125-.734375c-4.3125-2.367188-9.226563-3.40625-14.125-2.988281v-120.582031c0-9.425782 7.640625-17.066407 17.066406-17.066407zm102.203125 342.492188c-.554688 29.671875-1.175781 63.308593-12.671875 70.628906-7.75 4.6875-12.554687 13.023437-12.730469 22.078125v34.132812c0 4.710938-3.820312 8.53125-8.53125 8.53125h-102.402344c-4.710937 0-8.53125-3.820312-8.53125-8.53125v-25.171874c-1.242187-14.335938-6.710937-27.976563-15.71875-39.195313-1.519531-2.304687-3.011718-4.582031-4.40625-6.828125-3.898437-6.339844-7.25-11.09375-10.101562-15.238281-7.960938-9.414063-12.292969-21.363281-12.210938-33.691407-.707031-8.949218.402344-29.394531 1.296876-45.832031.433593-8.164062.851562-15.4375.945312-20.113281.171875-7.054688-.109375-14.394531-.375-21.496094-.296875-7.730468-.570312-15.035156-.304688-22.277344-.054687-13.890624 6.3125-27.023437 17.246094-35.585937l3.085938-2.390625c5.871094-4.304688 11.433594-9.011719 16.648437-14.085938 8.90625-9.128906 17.121094-18.902343 24.578125-29.246093 2.40625-3.492188 7.066406-4.597657 10.785156-2.558594l1.332032.734375c5.996094 4.230469 9.628906 11.050781 9.796875 18.386719-.003907 10.925781-3.078125 21.625-8.875 30.882812-.230469.414063-.425781.84375-.582031 1.289063-8.097657 12.0625-17.449219 23.234375-27.894532 33.332031-5.300781 5.511719-11.261718 10.355469-17.742187 14.421875-2.777344 1.371094-4.59375 4.140625-4.746094 7.234375s1.386719 6.027344 4.015625 7.664063c2.632812 1.636718 5.941406 1.71875 8.652344.214843 4.707031-2.660156 9.105468-5.835937 13.105468-9.472656v46.890625c.050782 17.976562 14.058594 32.820312 32 33.917969 12.925782 6.335937 20.574219 20.019531 19.199219 34.347656 0 4.714844 3.820313 8.535156 8.535157 8.535156 4.710937 0 8.53125-3.820312 8.53125-8.535156.386718-12.171875-3.164063-24.140625-10.128907-34.132813h78.226563zm-51.003906-18.226563v-324.265625h273.070312v204.796875c-8.074218.035156-15.867187 2.957032-21.976562 8.234375-4.5-7.777343-11.933594-13.429687-20.632813-15.6875-8.699219-2.261719-17.941406-.941406-25.660156 3.664063v-39.730469c21.179687-12.019531 34.226563-34.527344 34.132813-58.878906 0-37.703125-30.5625-68.265625-68.265626-68.265625-37.703124 0-68.265624 30.5625-68.265624 68.265625-.09375 24.351562 12.957031 46.859375 34.132812 58.878906v94.722656h-15.546875c-19.683594.027344-35.628906 15.976563-35.652344 35.660157v32.605468zm136.535156-221.867187v38.210937c-10.929688-9.683594-17.148438-23.609375-17.066406-38.210937 0-28.277344 22.921875-51.199219 51.199218-51.199219 28.277344 0 51.199219 22.921875 51.199219 51.199219.082031 14.601562-6.136719 28.527343-17.066406 38.210937v-37.777344c-.019531-19.078124-15.476563-34.542968-34.558594-34.566406-9.027343-.039062-17.6875 3.554688-24.03125 9.980469-6.339843 6.421875-9.828125 15.128906-9.675781 24.152344zm204.800781 228.402343c1.195313 31.8125-7.695312 63.191407-25.40625 89.644532-6.339843 7.125-13.457031 13.519531-21.21875 19.0625-3.109375 2.40625-5.421875 4.265625-6.289062 5.121094-4.203125 4.472656-6.628907 10.324218-6.828125 16.460937-.113282 1.765625-.101563 3.539063.042968 5.304687l8.53125-.132812-8.566406 1.363281c-.023437 5.644531-4.59375 10.214844-10.238281 10.238281h-115.203125c-5.882812.222657-10.84375-4.351562-11.089844-10.238281v-10.972656c-.40625-10.769531-6.90625-20.371094-16.753906-24.746094-14.878906-5.894531-24.992188-19.886719-25.914062-35.867187v-104.378906c.007812-10.261719 8.324218-18.582032 18.585937-18.59375h15.546875v93.867187c0 4.710937 3.820312 8.53125 8.535156 8.53125 4.710938 0 8.53125-3.820313 8.53125-8.53125v-264.535156c-.160156-4.5 1.527344-8.867188 4.667969-12.09375 3.144531-3.222657 7.46875-5.019531 11.972656-4.972657 9.660157.015626 17.484375 7.84375 17.492188 17.5v144.632813c0 4.714844 3.820312 8.535156 8.535156 8.535156 4.710937 0 8.53125-3.820312 8.53125-8.535156v-17.066406c0-9.425781 7.640625-17.066407 17.066406-17.066407s17.066407 7.640626 17.066407 17.066407v17.066406c0 4.714844 3.820312 8.535156 8.535156 8.535156 4.710937 0 8.53125-3.820312 8.53125-8.535156v-8.53125c0-9.425781 7.644531-17.070313 17.070312-17.070313 9.421875 0 17.066406 7.644532 17.066406 17.070313v17.066406c0 4.710938 3.820313 8.53125 8.53125 8.53125 4.714844 0 8.535157-3.820312 8.535157-8.53125-.003907-5.101562 2.269531-9.933593 6.203125-13.179687 3.929687-3.242188 9.109375-4.5625 14.113281-3.589844 8.304687 1.949219 14.085937 9.484375 13.816406 18.015625zm0 0"/><path d="m463.265625 219.4375c3.367187 3.300781 8.753906 3.300781 12.117187 0 .753907-.832031 1.359376-1.785156 1.792969-2.816406.910157-2.066406.910157-4.417969 0-6.484375-.777343-2.144531-2.464843-3.832031-4.609375-4.609375-1.523437-.679688-3.226562-.859375-4.863281-.511719-.566406.078125-1.113281.253906-1.621094.511719-.542969.1875-1.058593.445312-1.535156.769531-.449219.3125-.875.65625-1.28125 1.023437-.753906.828126-1.359375 1.78125-1.792969 2.816407-.910156 2.066406-.910156 4.417969 0 6.484375.4375 1.03125 1.042969 1.984375 1.792969 2.816406zm0 0"/><path d="m469.324219 187.777344c4.714843 0 8.535156-3.820313 8.535156-8.53125v-34.132813c0-4.714843-3.820313-8.535156-8.535156-8.535156-4.710938 0-8.53125 3.820313-8.53125 8.535156v34.132813c0 4.710937 3.820312 8.53125 8.53125 8.53125zm0 0"/><path d="m341.324219 460.84375h-8.53125c-4.714844 0-8.535157 3.820312-8.535157 8.535156 0 4.710938 3.820313 8.53125 8.535157 8.53125h8.53125c4.714843 0 8.535156-3.820312 8.535156-8.53125 0-4.714844-3.820313-8.535156-8.535156-8.535156zm0 0"/><path d="m409.589844 460.84375h-34.132813c-4.710937 0-8.53125 3.820312-8.53125 8.535156 0 4.710938 3.820313 8.53125 8.53125 8.53125h34.132813c4.714844 0 8.535156-3.820312 8.535156-8.53125 0-4.714844-3.820312-8.535156-8.535156-8.535156zm0 0"/></svg>