<?xml version="1.0" encoding="UTF-8"?>
<!DOCTYPE svg PUBLIC "-//W3C//DTD SVG 1.1//EN" "http://www.w3.org/Graphics/SVG/1.1/DTD/svg11.dtd">
<!-- Creator: CorelDRAW 2020 (64-Bit) -->
<svg xmlns="http://www.w3.org/2000/svg" xml:space="preserve" width="168.456mm" height="179.929mm" version="1.1" shape-rendering="geometricPrecision" text-rendering="geometricPrecision" image-rendering="optimizeQuality" fill-rule="evenodd" clip-rule="evenodd"
viewBox="0 0 10976.58 11724.19"
 xmlns:xlink="http://www.w3.org/1999/xlink"
 xmlns:xodm="http://www.corel.com/coreldraw/odm/2003">
 <g id="Слой_x0020_1">
  <metadata id="CorelCorpID_0Corel-Layer"/>
  <g id="_1567783364416">
   <path fill="#2B2A29" d="M2225.53 7456.68l8374.43 0 0 711.25 -8374.43 0 0 -711.25zm3716.87 -7456.68l243.87 0c279.52,4.63 321.11,48.76 656.67,384.31l2867.96 2867.95c385.19,384.56 450.01,827.11 57.41,1216.07 -143.85,142.51 -269.81,269.71 -413.04,412.93l-820.23 831.71c509.22,0 1159.22,-35.8 1651.05,0.89 452.44,33.75 780.97,360.95 780.97,848.02l0 3028.56c0,266.91 -367.1,266.91 -367.1,0l0 -1055.4 -8374.43 0 0 2477.91c0,199.7 231.92,367.1 481.82,367.1l7410.79 0c576.26,0 483.8,-527.5 480.85,-964.6 -1.07,-159.1 38.77,-297.3 184.52,-297.3 256.2,0 183.55,483.74 183.55,780.08 0,436.71 -329.77,825.97 -757.14,825.97l-7640.23 0c-157.99,0 -336.06,-95.72 -444.98,-197.43l-45.85 -45.93c-114.38,-123.46 -220.42,-287.68 -220.42,-513.77l0 -4496.95c0,-182.07 103.04,-372.27 189.88,-475.49 291.64,-346.61 668.83,-272.16 1051,-279.73 158.66,-3.15 180.22,-80.82 370.91,-271.51 223.57,-223.57 430.33,-430.32 653.89,-653.89 115.91,-115.91 556.13,-613.74 694.05,-613.74 89.88,0 160.6,85.37 160.6,183.55 0,198.07 -1089.34,1095.99 -1261.89,1353.67 1292.49,0 2584.98,0 3877.47,0 132.77,0 363.94,33.02 453.85,-27.97l1444.78 -1446.11c394.03,-389.55 19.65,-680.13 -206.54,-906.33l-2661.46 -2661.46c-129.04,-129.04 -285.36,-349.89 -521.96,-349.89 -385.03,0 -811.98,803.02 -1055.41,803.02 -144.51,0 -160.61,-126.44 -160.61,-229.43 0,-70.87 182.9,-217.31 235.17,-269.59 216.27,-216.27 555.6,-625.22 820.24,-625.22zm-3716.87 6470.1c0,-216.06 197.22,-390.04 412.99,-390.04l7548.45 0c516.07,0 412.98,634.36 412.98,1032.47l-8374.43 0 0 -642.42z"/>
   <path fill="#2B2A29" d="M-0 6034.18c0,484.47 229.25,607.82 613.74,992.31 106.82,106.81 684.32,728.46 785.82,728.46 128.82,0 183.55,-79.14 183.55,-183.55 0,-138.29 -518.91,-599.21 -636.68,-716.99 -120.32,-120.32 -223.83,-223.84 -344.16,-344.16 -249.15,-249.12 -410.76,-453.41 -68.88,-791.6l3671.03 -3670.93c91.61,-91.61 544.91,-503.28 544.91,-602.27 0,-194.14 -153.03,-183.55 -229.43,-183.55 -79.53,0 -1103.03,1068.61 -1175.86,1141.45l-2902.37 2902.37c-181.26,181.26 -441.67,382.71 -441.67,728.46z"/>
   <path fill="#2B2A29" d="M5667.08 10141.08l2041.98 0 0 481.82 -2041.98 0 0 -481.82zm-367.1 0c0,282.51 -67.56,825.97 252.38,825.97l2271.42 0c126.93,0 229.43,-132.3 229.43,-252.38 0,-507.19 101.01,-940.69 -298.26,-940.69l-2133.76 0c-228.44,0 -321.21,137.2 -321.21,367.1z"/>
   <path fill="#2B2A29" d="M5460.59 2776.18c-283.89,0 -367.1,-165.7 -367.1,-390.04 0,-167.19 397.16,-497.65 567.74,-671.21 349.98,-356.1 625.33,-5.45 625.33,143.51 0,289.63 -87.99,305.95 -349.9,567.86 -99.07,99.07 -311.14,349.89 -476.08,349.89zm-734.2 -344.16c0,542.1 622.67,910.79 1091.71,586.95 40.35,-27.86 88.06,-69.64 127.77,-101.66l369.37 -364.82c170.54,-170.26 338.42,-336.78 338.42,-648.17 0,-367.66 -301.4,-688.3 -665.37,-688.3 -416.89,0 -512.96,180.27 -808.77,476.08 -190.5,190.5 -453.14,373.86 -453.14,739.93z"/>
   <path fill="#2B2A29" d="M1193.07 6125.95c0,98.19 70.72,183.55 160.61,183.55 154.53,0 305.06,-201.81 395.77,-292.53l1732.24 -1732.24c137.19,-137.19 671.1,-609.36 671.1,-751.4 0,-129.55 -83.49,-183.55 -206.49,-183.55 -83.1,0 -1311.79,1277.37 -1393.83,1359.41 -102.07,102.07 -1359.41,1297.89 -1359.41,1416.77z"/>
   <path fill="#2B2A29" d="M8810.35 10141.08l871.86 0 0 481.82 -871.86 0 0 -481.82zm-367.1 45.89c0,940.03 -76.75,780.08 1353.68,780.08 314.33,0 252.38,-516.86 252.38,-780.08 0,-254.58 -67.04,-412.99 -321.21,-412.99l-963.63 0c-254.18,0 -321.21,158.41 -321.21,412.99z"/>
   <path fill="#2B2A29" d="M3487.43 10967.06l1101.29 0c245.91,0 242.86,-344.16 0,-344.16l-1101.29 0c-230.77,0 -230.77,344.16 0,344.16z"/>
  </g>
 </g>
</svg>
