<?xml version="1.0" encoding="UTF-8"?>
<!DOCTYPE svg PUBLIC "-//W3C//DTD SVG 1.1//EN" "http://www.w3.org/Graphics/SVG/1.1/DTD/svg11.dtd">
<!-- Creator: CorelDRAW 2020 (64-Bit) -->
<svg xmlns="http://www.w3.org/2000/svg" xml:space="preserve" width="144.51mm" height="126.541mm" version="1.1" shape-rendering="geometricPrecision" text-rendering="geometricPrecision" image-rendering="optimizeQuality" fill-rule="evenodd" clip-rule="evenodd"
viewBox="0 0 2255.95 1975.44"
 xmlns:xlink="http://www.w3.org/1999/xlink"
 xmlns:xodm="http://www.corel.com/coreldraw/odm/2003">
 <g id="Слой_x0020_1">
  <metadata id="CorelCorpID_0Corel-Layer"/>
  <g id="_1567787718304">
   <path fill="black" d="M356.9 1233.72l45.02 -47.52 136.71 134.56c-10.87,7.63 -13.3,11.9 -22.5,19.33l-43.26 36.05c-12.23,10.52 -7.47,11.93 -23.45,16.2 -4.85,-18.18 -71.71,-115.67 -87.24,-146.29l-5.29 -12.33zm370.12 158.62c-32.44,-21.72 -55.68,-48.78 -88.12,-70.5l133.24 -135.54 50.86 48.39 -95.97 157.65zm-141 -118.97c-13.28,-19.83 -54.13,-56.34 -73.8,-76.01 -46.13,-46.13 -40.76,-23.23 -40.76,-109.05 131.63,30.67 106.3,30.67 237.93,0 0,79.03 8.89,55 -45.16,109.05 -20.1,20.1 -57.99,62.47 -78.21,76.01zm-246.74 -815.14c0,57.07 168.5,144.14 245.79,163.98 45.56,11.7 127.7,25.06 177.03,25.66 45.86,0.55 58.88,-8.68 85.07,16.27 38.16,36.35 36.71,14.4 86.94,14.4 27.06,0 22.03,37.22 22.03,52.87 0,35.22 -20.9,26.45 -46.44,32.87 -84.39,21.23 -20.61,139.08 -180.82,237.76 -134.42,82.79 -324.56,29.92 -395.4,-137.05 -11.34,-26.73 -11.21,-91.76 -65.88,-101.55 -7.64,-1.37 -47.29,7.32 -47.29,-40.84 0,-43.67 16.71,-44.06 35.25,-44.06 22.18,0 10.54,26.44 57.28,26.44 25.2,0 83.72,-55.51 83.72,-79.31 0,-33.99 -40.82,-59.65 -83.72,4.41 -17.16,-9.08 -31.58,-17.07 -52.87,-22.03 0,-23.97 -9.02,-60.14 -6.99,-81.85 10.55,-112.95 56.79,-202.78 152.54,-261.68 97.86,-60.19 208.97,-66.67 316.53,-26.03 110.02,41.57 203.24,159.5 203.24,285.84 0,43.03 1.08,41.23 -8.81,83.72 -48.78,11.68 -28.52,-16.69 -72.96,-28.38 -43.15,-11.35 -257.73,24.94 -417.19,-115.96 -12.64,-11.17 -33.12,-40.72 -51.8,-40.72 -21.31,0 -35.25,13.94 -35.25,35.25zm105.75 -290.8c27.41,-57.14 63.5,-97.81 141.53,-99.58 34.31,-0.78 70.39,11.79 92.76,28.32 13.16,9.72 22.2,15.43 31.99,29.7 9.64,14.05 18.56,22.83 20.12,41.57 -30.89,-2.57 -109.02,-39.41 -226.55,-15.06 -21.15,4.38 -41.23,13.51 -59.85,15.06zm-74.9 39.66c-124.54,83.4 -185.06,188.73 -185.06,348.08 0,32.16 8.81,42.74 8.81,74.9 -44.77,11.96 -68.96,150.94 15.82,191.27 30.5,14.51 39.01,-5.33 47.31,23.19 6.04,20.78 7.36,35.52 17.59,57.31 17,36.2 29.72,58.17 54.73,86.27l54.14 51.6c21.12,15.8 17.49,10.46 17.49,53.01 0,13.39 -13.51,11.18 -47.37,45.16 -17.21,17.27 -31.26,31.12 -48.39,48.54 -21.48,21.84 -30.69,21.75 -58.58,33.95 -65.63,28.72 -140.21,54.21 -186.12,100.28 -26.38,26.47 -60.5,82.98 -60.5,133.37 0,97.37 9.31,184.06 8.75,277.65l5.67 135.33c5.82,42.5 -9.71,106.95 38.45,106.95 49.79,0 30.57,-61.08 30.85,-118.98l-7.62 -155.41c-3.49,-25.49 -0.29,-52.35 -1.06,-78.25 -0.79,-26.29 -4.7,-46.33 -4.54,-79.18 0.28,-56.79 -9.94,-59.29 1.85,-108.28 3.87,-16.1 8,-18.26 11.36,-32.7 18.11,4.84 12.25,6.81 23.46,20.6 129.96,159.76 108.72,117.82 108.72,393.58l1.69 134.9c11.42,40.33 64.4,23.47 64.4,-2.72l0 -352.49c0,-79.18 -73.23,-161.68 -124.37,-219.31 -7.79,-8.78 -17.97,-20.35 -21.04,-31.84l163.03 -70.5c19.37,36.62 41.59,68.17 63.11,104.33 30.12,50.63 41.4,85.14 95.51,85.14 32.47,0 73.89,-50.66 96.94,-66.09l0 458.24c0,60.21 -14.53,118.97 39.66,118.97 9.81,0 17.72,-7.9 21.77,-13.48 16.94,-23.35 9.07,-223.63 9.07,-255.29 0,-101.34 0,-202.68 0,-304.02 48.96,25.9 47.86,61.69 110.15,61.69 39.62,0 63.48,-57.51 81.17,-86.26 21.66,-35.21 42.2,-70.3 64.23,-103.2 15.11,3.52 26.78,11.48 40.27,17.01 14.9,6.12 24.89,10.31 40.31,16.97l82.45 36.52c-14.29,27.01 -76.71,90.49 -97.88,122.43 -38.01,57.36 -51.93,97.55 -51.93,172.78l0 295.21c0,21.31 12.51,39.66 35.25,39.66 51.68,0 35.25,-94.69 35.25,-145.4 0,-61.69 0.07,-123.38 -0,-185.06 -0.16,-126.75 41.18,-136.82 103.86,-217.79 10.08,-13.03 10.78,-15.75 23.92,-24.55 5.31,10.04 17.62,38.53 17.62,52.87 0,97.9 -9.11,183.11 -8.71,277.69l-5.71 135.28c-19.88,145.04 48.96,108.87 59.22,90.07 13.76,-25.22 5.38,-84.93 8.72,-114.66 6.61,-58.89 5.32,-171.52 11.93,-230.41 2.93,-26.12 -1.65,-56.31 1.29,-82.43 11.01,-98.09 -8.99,-176.34 -88.06,-234.88 -27.97,-20.7 -126.09,-62.33 -167.51,-79.24 -52.55,-21.45 -44.69,-23.59 -94.26,-73.17 -13.64,-13.64 -24.37,-34.44 -47.37,-36.35l0 -57.28c62.61,-33.13 117.29,-112.7 137.18,-180.07 20.23,-68.53 10.96,-22.72 56.75,-49 74.15,-42.55 65.44,-155.97 8.76,-193.93 26.96,-115.71 6.8,-211.93 -55.5,-305.8 -12.46,-18.77 -15.41,-21.2 -29.23,-36.87 -7.41,-8.4 -6.56,-9.99 -13.71,-17.14 -46.03,-46.02 -72.01,-40.05 -77.68,-85.35 -13.31,-106.45 -109.34,-180.52 -224.85,-180.52 -110.31,0 -211.49,95.78 -211.49,207.09z"/>
   <path fill="black" d="M1573 1229.32c36.97,24.75 30.84,33.05 30.84,70.5 -55.98,0 -58.48,5.05 -60.46,-12.18 -0.7,-6.07 0.59,-31.35 12.65,-44.44 5.56,-6.03 10.53,-9.57 16.97,-13.88zm145.4 30.84c-22.72,0 -36.65,-21.2 -49.57,-34.15 -15.32,-15.35 -31.35,-27.83 -42.96,-45.16 11.92,-17.8 122.66,-111.06 144.1,-129.08 17.1,-14.37 31.33,-30.41 49.77,-42.76l49.52 47.42 -123.29 187.25c-7.6,11.1 -10.04,16.49 -27.57,16.49zm-440.61 -202.68l49.52 -47.41c42.58,26.78 165.52,149.61 197.22,166.38 -8.76,13.08 -74.13,83.72 -88.12,83.72 -30.58,0 -28.15,-6.95 -52.87,-44.06l-105.75 -158.62zm114.56 -145.4c117.44,62.14 244.23,78.4 361.3,0l0 66.09c-14.57,3.89 -12.79,5.93 -23.17,16.49l-110.08 97.01c-16.88,15.8 -29.5,20.58 -43,40.72 -11.64,-7.8 -16.88,-10.34 -27.6,-20.87l-136.53 -119.02c-29.36,-25.02 -20.93,-30.71 -20.93,-80.41zm-70.5 -599.24c0,32.59 86.05,89.42 115.96,104.34 88.53,44.18 209.94,47.58 311.09,36.31 18.69,-2.08 38.89,-8.05 57.63,-8.47 41.08,77.63 11.56,88.12 118.97,88.12 6.24,9.32 17.62,19.24 17.62,35.25 0,78.21 -50.13,24.55 -89.01,78.42 -12.12,16.79 -13.91,43.45 -20.51,63.21 -8.77,26.26 -41.79,86.02 -64.09,103.35 -82.65,64.23 -102.19,81.08 -218.54,81.08 -81.16,0 -159.72,-58.34 -205.27,-120.78 -13.58,-18.62 -16.94,-30.76 -26.8,-52.51 -16.69,-36.8 -6.49,-57.05 -36.92,-86.45 -3.99,-3.85 0.38,-1.73 -9.88,-7.75 -49.05,-28.76 -64.8,18.1 -64.8,-71.79 0,-17.48 17.14,-22.03 30.84,-22.03 21.61,0 44.94,76.11 129.02,-25.2 28.45,-34.28 2.21,-62.93 -18.87,-62.93 -21.37,0 -43.98,22.85 -48.47,39.66 -11.45,-2.67 -8.92,-2.65 -18.84,-7.59l-8.72 -4.5c-17.42,-10.07 -14.91,-14.42 -22.77,-56.54 -52.45,-280.75 68.39,-238.42 107.74,-266.11 89.39,-62.9 184.63,-97.35 319.81,-77.72 131.18,19.05 233.98,102.13 243.78,240.9 7.87,111.35 -4.13,74.03 -4.13,149.53l-30.84 0c-1.17,-14.06 -18.4,-53.66 -25.04,-67.49 -27.79,-57.81 -121.63,12.13 -236.75,-5.52 -82.65,-12.68 -129.48,-5.65 -212.28,-69.77 -15.79,-12.23 -32.19,-42.28 -54.66,-42.28 -15.36,0 -35.25,19.89 -35.25,35.25zm-154.21 -35.25c0,102.8 21.37,168.4 22.03,198.28 -79.07,41.84 -77.74,200.99 48.47,211.49 6.83,82.13 75.57,153.9 80.02,162.32 9.27,17.55 3.7,56.61 3.7,80.02 -20.6,1.71 -51.19,40.17 -73.8,62.79 -35.5,35.52 -33.45,35.71 -86.47,54.53 -34.68,12.31 -187.82,64.55 -187.82,94.18 0,18.43 -3.27,33.09 21.77,40.2 12.65,3.59 18.88,0.91 31.01,-4.73l193.97 -79.53c29.46,44 58.75,88.13 88.12,132.18 34.02,51.02 55.45,101.34 123.37,101.34 18.95,0 23.88,-5.14 39.66,-8.81 0,62.21 -3.48,111.17 -4.23,172.02l-20.55 424.88c-9.86,67.51 68.11,80.65 69.04,6.93l21.9 -480.4c-0.31,-49.59 3.85,-57.01 4.35,-79.37l66.09 0c0,57.79 3.54,102.19 4.23,158.8l12.19 234.55c3.69,26.92 -0.82,55.02 1.44,82.28 4.75,57.38 -7.25,132.42 39.42,132.42 54.83,0 30.49,-76.16 30.85,-136.6l-4.39 -127.79c-1.06,-19.6 -4.32,-21.14 -4.6,-43.86 -1.44,-117.13 -13.04,-227.98 -13.04,-343.86 37.06,8.64 79.77,23.53 118.48,-26.92l132.67 -197.79c41.93,20.12 126.58,46.67 174.46,67.88 23.15,10.25 29.1,22.28 50.25,33.47 -17.46,26.07 -78.5,80.25 -104.73,106.76l-45.11 60.63c-11.64,22.37 -26.4,54.24 -26.4,79.35l0 502.3c0,27.08 56.26,43.85 65.24,-0.85 5.05,-25.14 -4.9,-450.01 3.2,-494.7 7.13,-39.35 14.2,-50.94 33.49,-76.67 15.79,-21.07 89.87,-97.54 109.58,-110.73 0,22.89 5.1,22.08 4.57,43.94 -0.46,18.97 -4.46,20.94 -4.75,44.01 -0.45,35.84 -0.21,63.24 -3.59,93.35 -6.62,59.01 -1.73,127.78 -5.03,188.84 -3.31,61.26 -9.13,121.49 -8.82,185.05 0.18,37.3 -4.38,55.99 -4.51,92.55 -0.15,42.91 1.67,61.65 39.75,61.65 43.89,0 26.54,-102 33.39,-147.26l19.48 -535.69c0,-31.4 -8.37,-55.79 -18.4,-78.53 -17.52,-39.72 -35.32,-57.63 -66.63,-83.18 -36.16,-29.5 -121.85,-56.8 -170.57,-76.17 -80.81,-32.14 -53.44,-16.07 -117.82,-80.46 -16.22,-16.22 -31,-40.68 -58.38,-42.96 0,-105.13 -0.35,-60.83 38.34,-124.69 16.13,-26.62 44.53,-79.3 45.38,-117.65 89.31,-7.43 101.34,-63.19 101.34,-132.18 0,-33.59 -26.44,-59.98 -26.44,-61.69 0,-30.63 8.81,-74.92 8.81,-141 0,-224.85 -159.57,-352.49 -365.71,-352.49 -130.3,0 -197.81,18.32 -297.68,85.65 -27.64,18.64 -23.56,4.59 -63.74,24.38 -62.74,30.91 -96.82,88.83 -96.82,167.55z"/>
   <path fill="black" d="M1268.97 1520.12c68.03,0 154.21,14.65 154.21,-35.25 0,-47.97 -93.61,-35.25 -145.4,-35.25 -63.73,0 -59.44,70.5 -8.81,70.5z"/>
   <path fill="black" d="M339.27 1625.87c0,52.46 46.95,39.66 123.37,39.66 45.93,0 54.54,-70.5 -13.22,-70.5 -29.53,0 -110.15,-6.85 -110.15,30.84z"/>
  </g>
 </g>
</svg>
