<?xml version="1.0" encoding="UTF-8"?>
<!DOCTYPE svg PUBLIC "-//W3C//DTD SVG 1.1//EN" "http://www.w3.org/Graphics/SVG/1.1/DTD/svg11.dtd">
<!-- Creator: CorelDRAW 2020 (64-Bit) -->
<svg xmlns="http://www.w3.org/2000/svg" xml:space="preserve" width="135.45mm" height="135.45mm" version="1.1" shape-rendering="geometricPrecision" text-rendering="geometricPrecision" image-rendering="optimizeQuality" fill-rule="evenodd" clip-rule="evenodd"
viewBox="0 0 1412.65 1412.65"
 xmlns:xlink="http://www.w3.org/1999/xlink"
 xmlns:xodm="http://www.corel.com/coreldraw/odm/2003">
 <g id="Слой_x0020_1">
  <metadata id="CorelCorpID_0Corel-Layer"/>
  <g id="_1567884840128">
   <path fill="black" d="M364.2 968.44c0,38.79 19.09,33.11 66.22,33.11 34.57,-0 56.03,2.91 85.61,5.44 115.18,9.85 122.33,30.24 247.02,12.65l156.91 -16.91c32.99,-4.54 56.76,-7.6 56.76,31.93 0,27.52 -178.05,82.22 -207.26,90.72 -13.28,3.87 -26.37,7.7 -38.92,10.75 -51.69,12.57 -27.02,58.56 -4.9,58.56 15.51,0 69.85,-17.24 85.19,-22.41 53.4,-18.03 105.4,-34.75 156.7,-58.51 52.11,-24.13 40.38,-37.44 64.46,-43.15 58.43,-13.84 115.53,-27.29 173.76,-41.45 29.89,-7.27 108.77,-31.33 131.15,-23.8 21.4,7.2 33.05,44.16 -6.12,60.55l-116.39 46.39c-50.63,20.22 -101.2,41.73 -152.93,62.28l-154.5 60.71c-153.16,61.79 -174.93,42.37 -324.89,42.25 -30.86,-0.03 -123.42,-13.5 -140.06,0.47 -9.7,8.14 -32.21,49.03 -41.85,63 -8.61,12.47 -15.3,16.46 -35.96,16.46l-286.94 0c-41.6,0 -9.24,-49.78 0.14,-66.07 25.85,-44.9 74.31,-136.04 103.11,-172.8 12.56,-16.03 20.91,-19.79 20.91,-39.79 0,-17.65 -13.48,-24.83 -30.35,-24.83 -30.15,0 -84.53,106.4 -96.44,127.04l-60.7 107.6c-8.78,15.05 -13.07,29.81 -13.92,43.62l0 10.15c2.46,40.4 34.38,70.27 66.22,70.27l309.02 0c41.99,0 61.21,-21.26 79.88,-52.55 5.47,-9.17 14.29,-19.95 16.68,-30.22 200.18,0 257.38,36.16 446.97,-38.63l396.13 -158.45c26.79,-10.71 63.18,-20.49 79.63,-44.53 10.8,-15.78 16.65,-32.42 18.12,-48.53l0 -16.13c-3.93,-42.29 -38.83,-77.25 -93.81,-77.25 -26.73,0 -254.33,58.62 -286.94,66.22 -0.67,-30.04 -37.3,-68.98 -80.01,-68.98 -24.93,0 -41.58,3.55 -63.54,5.44l-126.92 13.79c-112.65,9.72 -96.62,7.58 -211.9,-8.68 -20.87,-2.94 -157.56,-23.04 -177.71,-0.17 -2.23,2.53 -7.63,10.71 -7.63,14.44z"/>
   <path fill="black" d="M535.26 99.33c104.46,0 56.24,20.55 129.2,-30.83 61.52,-43.32 123.09,36.34 141.19,36.34 37.09,0 79.33,-19.01 113.95,15.72 12.08,12.11 19.44,30.34 27.68,46.82 9.2,18.39 11.67,32.11 31.32,40.41 63.17,26.69 90.55,35.02 77.24,136.46 -7.24,55.12 87.21,69.08 23.51,163.97 -5.2,7.74 -9.46,14.26 -14.36,21.5 -4.86,7.17 -11.58,14.15 -12.43,25.4 -1.16,15.31 8.09,45.56 5.98,61.77 -10.69,82.07 -88.79,59.48 -110.23,110.68 -35.68,85.19 -51.91,77.44 -131.68,72.46 -47.24,-2.95 -60.72,46.99 -107.54,46.99 -54.92,0 -78.74,-53.23 -115.34,-49.42 -36.04,3.75 -69.22,15.48 -100.69,-15.99 -28.82,-28.82 -26.88,-73.68 -59.42,-86.81 -67.1,-27.08 -89.47,-40.63 -76.84,-136.86 7.18,-54.68 -87.71,-66.58 -22.96,-163.41 6.92,-10.35 25.22,-33.37 26.21,-47.5 1.49,-21.38 -22.39,-76.82 18.65,-111.82 34.69,-29.58 66.27,-19.15 85.79,-60.44 8.4,-17.77 11.97,-33.98 23.37,-48.36 10.71,-13.51 34.5,-27.1 47.4,-27.1zm60.7 -55.18c-23.57,0 -49.75,-3.8 -67.08,-0.87 -58.43,9.89 -86.73,38.56 -109.41,92.01 -4.56,10.76 -2.64,14.1 -12.82,20.29 -17.24,10.46 -42.07,17.35 -63.75,35.57 -67.33,56.59 -37.8,136.2 -41.63,149.51 -1.02,3.56 -17.01,26.22 -20.4,31.25 -32.9,48.89 -37.57,101.39 -4.85,152.2 6.01,9.33 13.58,17.06 20.25,26.73 15.08,21.86 -24.96,88.85 39.62,153.44 17.99,17.99 32.82,25.51 56.33,34.72 10.27,4.02 12.59,3.2 18.09,12.26 16.46,27.13 14.81,42.76 45.56,73.08 16.62,16.39 53.28,36.5 84.9,36.5 56.93,0 36.36,-17.18 79.46,11.59 43.32,28.91 46.82,29.8 97.12,29.8 56.29,0 73.97,-43.59 104.7,-44.42 31.83,-0.86 84.98,16.36 133.31,-32.1 40.7,-40.81 35.29,-65.36 45.98,-75.42 2.7,-2.54 15.35,-7.88 20.29,-10.07 19.25,-8.51 40.76,-21.46 55.17,-35.88 57.51,-57.51 32.05,-119.76 34.18,-139.14 0.68,-6.2 4.53,-9.41 8.03,-14.47 38.27,-55.35 58.15,-107.39 18.32,-170.57 -6.4,-10.16 -13.65,-17.61 -20.11,-26.83 -8.28,-11.81 -2.56,-37.7 -2.56,-69.13 0,-61.66 -45.63,-101.98 -92.65,-119.8 -34.88,-13.22 -14.68,-25.46 -55.9,-76.53 -11.96,-14.82 -31.23,-27.91 -50.01,-35.52 -59.66,-24.21 -82.16,5.34 -107.3,-11.33 -46.85,-31.07 -54.59,-41 -113.53,-41 -53.31,0 -79.84,44.15 -99.33,44.15z"/>
   <path fill="black" d="M811.17 240.04c26.56,0 27.59,11.05 27.59,33.11 0,5.97 -77.12,134.44 -90.1,158.21l-121.12 209.97c-5.8,9.79 -9.01,17.77 -20.38,21.11 -8.71,2.56 -21.86,-0.02 -28.44,-7.93 -15.32,-18.43 3.11,-39.91 11.72,-55.8l196.76 -341.26c5.16,-9.67 10.33,-17.42 23.97,-17.42zm-295.22 394.55c0,81.4 94.49,114.75 146.93,55.88l172.99 -296.06c11.6,-20.28 21.82,-39.22 34.12,-59.69 16.25,-27.04 26.72,-40.08 26.72,-75.37 0,-63.52 -92.54,-110.48 -146.97,-47.64 -6.37,7.35 -12.72,19.99 -18.07,28.83l-34.46 59.34c-49.46,88.9 -105.94,180.35 -154.51,267.63 -10.26,18.44 -26.74,40.96 -26.74,67.07z"/>
   <path fill="black" d="M844.28 598.72c0,-42.29 63.46,-48.26 63.46,2.76 0,37.07 -63.46,37.29 -63.46,-2.76zm-57.94 -2.76c0,48.76 43.16,91.05 88.29,91.05 50.18,0 91.05,-38.8 91.05,-93.81 0,-83.64 -126.06,-126.06 -170.2,-32.25 -3.52,7.48 -9.14,25.65 -9.14,35z"/>
   <path fill="black" d="M504.91 314.53c0,-18.45 1.22,-41.39 33.11,-41.39 35.45,0 43.99,56.06 3.51,64.32 -7.2,1.47 -14.38,0.7 -22.41,-3.96 -5.25,-3.04 -14.2,-12.05 -14.2,-18.98zm-57.94 -11.04c0,108.01 139,118.49 170.77,38.33 28.44,-71.76 -27.45,-124.67 -79.96,-126.13 -47.15,-1.31 -90.81,39.95 -90.81,87.8z"/>
   <path fill="black" d="M242.8 1004.3c0,39.93 57.94,37.65 57.94,2.76 0,-8.07 -2.99,-15.48 -7.44,-20.16 -21.14,-22.24 -50.51,-1.86 -50.51,17.4z"/>
  </g>
 </g>
</svg>
