<?xml version="1.0" encoding="UTF-8"?>
<!DOCTYPE svg PUBLIC "-//W3C//DTD SVG 1.1//EN" "http://www.w3.org/Graphics/SVG/1.1/DTD/svg11.dtd">
<!-- Creator: CorelDRAW 2020 (64-Bit) -->
<svg xmlns="http://www.w3.org/2000/svg" xml:space="preserve" width="882.89mm" height="806.899mm" version="1.1" shape-rendering="geometricPrecision" text-rendering="geometricPrecision" image-rendering="optimizeQuality" fill-rule="evenodd" clip-rule="evenodd"
viewBox="0 0 8226.33 7518.28"
 xmlns:xlink="http://www.w3.org/1999/xlink"
 xmlns:xodm="http://www.corel.com/coreldraw/odm/2003">
 <g id="Слой_x0020_1">
  <metadata id="CorelCorpID_0Corel-Layer"/>
  <g id="_1567896351936">
   <path fill="#2B2A29" d="M5179.23 2145.99l2484.69 0 0 268.61 -2761.7 0c25.16,-37.58 95.62,-99.82 132.21,-136.41 24.15,-24.15 115.97,-132.21 144.8,-132.21zm-1552.93 268.61l-3340.9 0 0 -268.61 3617.9 0c-25.16,37.57 -95.62,99.82 -132.21,136.4 -24.15,24.15 -115.97,132.21 -144.8,132.21zm847.82 0l-419.71 -8.39c25.44,-37.99 1548.15,-1554.98 1609.42,-1613.96l339.97 -331.57c30.65,-30.33 191.62,-178.21 224.71,-178.21 103.68,0 176.28,66.05 176.28,167.88 0,44.2 -304.18,341.92 -346.38,383.91l-1334.56 1343.2c-31.5,31.5 -224.03,237.14 -249.73,237.14zm-4474.11 -369.34l0 461.68c0,259.31 164.95,171.2 279.09,199.38 46.86,11.57 28.43,23.61 36.21,81.31 5.78,42.87 8.79,67.47 14.54,111.37l152.26 1056.51c61.67,418.67 118.67,850.48 185.75,1266.45 26.18,162.35 128.75,941.93 171.56,1037.2 99.25,220.83 250.21,299.6 450.03,397.78 39.92,19.62 58.64,13.79 112.35,13.56l2409.3 8.51c58.6,0.64 62.97,9.13 94.9,-22.62 21.22,-21.1 43.67,-42.19 58.01,-68.12 29.22,-52.8 -7.33,-144.02 -47.44,-166.11 -72.17,-39.74 -1086.25,-28.69 -1188.47,-28.69l-957 -8.34c-80.75,0.42 -145.53,-8.62 -235.18,-8.26 -59.12,0.24 -175.32,-11.65 -219.4,-24.04 -104.31,-29.32 -210.28,-169.18 -228.85,-258.01l-64.83 -413.64c-65.72,-388.49 -131.85,-873.61 -189.33,-1271.27 -41.3,-285.73 -81.24,-558.39 -121.49,-843.85 -19.69,-139.67 -39.5,-280.35 -60.94,-425.92 -12.1,-82.17 -55.13,-369.44 -55.13,-431.74 705.5,0 1384.57,-8.39 2090.16,-8.39l4457.35 8.37c78.2,-0.29 127.62,8.42 209.83,8.42 0,70.68 -16.9,147.79 -26.63,216.8 -17.85,126.59 -82.49,549.12 -82.49,647.8 0,85.65 136.69,170.23 233.51,74.01 59.43,-59.06 113.32,-549.68 128.89,-660.16l40.52 -278.46c31.97,-7.45 52.02,-16.2 92.01,-17.12 39.86,-0.91 76.01,3.76 113.46,-4.05 74.73,-15.6 82.12,-56 93.49,-133.15 10.46,-70.97 -3.93,-149.24 6.77,-219.87 7.48,-49.35 0.43,-363.1 -25.84,-417.75 -29.12,-60.57 -86.19,-56.22 -170.75,-55.9 -83.69,0.31 -144.22,-8.9 -218.16,-8.48l-1150.12 0.11c-310.87,0 -594.84,-8.4 -906.57,-8.4 12.88,-48.24 111.23,-132.21 149,-169.98l755.1 -755.85c70.14,-83.92 126.43,-129.57 190.82,-212.11 105.33,-135.03 105.46,-146.09 105.46,-305.86 0,-165.16 -106.05,-296.02 -216.89,-353.92 -136.79,-71.45 -312.72,-76.42 -448.13,7.88l-256.31 238.94c-17.9,15.77 -23.91,16.79 -42.01,33.54 -97.59,90.27 -190.33,190.54 -285.3,285.51 -97.2,97.2 -188.26,188.02 -285.28,285.53l-927.26 927.86c-37.28,38.75 -45.42,27.25 -115.82,26.88 -1186.41,-6.18 -2381.53,6.65 -3567.68,-0.14 -58.83,-0.34 -79.9,8.72 -133.91,8.79 -86.95,0.12 -199.69,-8.2 -282.41,2.99 -74.27,10.05 -120.8,22.97 -120.8,173z"/>
   <path fill="#2B2A29" d="M4843.46 5814.26c0,-396.86 -16.49,-484.59 162.27,-845.03 42.97,-86.64 87.61,-151.87 144.65,-224.69 226.85,-289.59 553.47,-511.25 917.84,-584.72 196.14,-39.55 491.21,-35.85 674.1,7.41 230.37,54.49 442.3,165.14 624.37,307.39 316.06,246.94 574.23,714.59 574.23,1121.4 0,305.05 -14.45,492.07 -148.29,758.28 -213.15,423.98 -566.54,726.45 -1036.95,843.35 -55.67,13.83 -92.35,19.98 -155.2,29.47 -135.32,20.44 -152.53,15.3 -263.29,6.2 -29.53,-2.42 -61.87,1.48 -91.46,-0.87 -325.24,-25.82 -687.74,-176.94 -913.32,-404.57 -32.64,-32.93 -59.97,-59.34 -92.48,-92.19 -139.04,-140.48 -282.86,-409.29 -345.07,-595.09 -30.54,-91.21 -51.4,-206.57 -51.4,-326.34zm1544.53 1704.02c139.46,0 299.06,-6.22 411.43,-33.46 389.88,-94.5 771.65,-334.68 1025.23,-645.22 232.19,-284.35 401.67,-703.12 401.67,-1067.31 0,-285.87 -9.39,-472.67 -115,-741.21 -63.38,-161.15 -144.58,-321.01 -244.7,-443.62 -350.99,-429.84 -717.36,-671.21 -1311.96,-736.22 -50.09,-5.48 -114.03,-5.32 -158.83,-9.28 -114.89,-10.16 -356.16,30.24 -462.83,56.73 -51.01,12.67 -81.63,22.6 -129.46,38.43l-243.9 100.26c-23.73,11.95 -34.57,19.62 -53.43,30.52 -20.5,11.85 -39.05,18.94 -60.11,32.22 -88.69,55.94 -170.1,111.79 -248.23,179.88 -485.3,422.95 -700.26,962.51 -639.11,1634.28 7.84,86.11 34.84,209.91 59.07,285.09l93.71 250.45c45.96,106.77 115.7,227.02 184.57,319.09 13.6,18.19 21.93,29.27 35.96,47.98l119.98 140.25c59.18,74.31 287.36,245.58 384.67,303.65l226.46 117.7c74.39,36.12 173.63,65.49 253.65,90.51 125.31,39.17 177.7,36.88 303.53,40.63 60.54,1.8 59.69,8.67 167.61,8.67z"/>
   <path fill="#2B2A29" d="M6169.74 6091.27c-48.28,-32.33 -79.5,-66.9 -119.62,-107.03 -39.84,-39.84 -73.4,-73.44 -113.2,-113.45 -23.4,-23.52 -36.43,-29.1 -58.95,-50.17 -53.43,-50.01 -141.63,-132.28 -220.28,-132.28 -65.66,0 -117.52,72.92 -117.52,151.09 0,58.12 96.52,142.69 132.21,178.38l281.58 272.43c94.77,79.22 161.94,170.36 257.74,170.36 75.41,0 124.95,-94.19 160.67,-141.52l384.95 -538.41c39.69,-60.34 82.86,-116.06 124.16,-178.03 85.03,-127.59 354.31,-482.4 354.31,-577.45 0,-43.23 -20.87,-67.59 -53.77,-88.94 -34.9,-22.64 -68.87,-36.69 -106.94,-30.13 -62.27,10.73 -102.54,86.69 -151.03,151.49 -12.32,16.47 -17.02,21.4 -29.9,37.26l-158.69 219.05c-22.1,33.5 -40.6,58.41 -62.14,88.95l-370.46 519.32c-25.58,33.89 -107.81,152.11 -133.13,169.06z"/>
   <path fill="#2B2A29" d="M2417.53 5394.55c0,143.82 118.63,151.1 235.04,151.1 126.51,0 374.91,5.87 492.17,-11.49 146.13,-21.63 134.14,-172.72 72.53,-234.23 -34.4,-34.35 -103.98,-39.68 -170.17,-39.68 -96.65,0 -500.65,-13.82 -565.86,21.74 -34.51,18.82 -63.71,62.25 -63.71,112.57z"/>
   <path fill="#2B2A29" d="M1729.21 5545.64c85.54,0 251.49,7.61 321.99,-22.17 100.92,-42.64 93.46,-203.35 5.6,-246.65 -53.36,-26.3 -569.63,-21.3 -662.45,-7.27 -111.13,16.8 -143.06,150.98 -91.4,215.49 46.05,57.5 94.34,51.92 191.5,51.93 50.45,0.01 60.81,8.42 108.51,9.01 41.76,0.52 84.37,-0.33 126.25,-0.33z"/>
   <path fill="#2B2A29" d="M1628.48 4697.83c96.21,0 376.72,7.91 441.79,-36.68 81.66,-55.97 59.96,-178.18 9.82,-221.85 -23.21,-20.21 -73.48,-26.87 -115.83,-26.87l-486.86 0c-159.34,0 -236.67,86.12 -182.43,199.21 22.42,46.74 64.93,77.1 131.77,78.09 72.85,1.08 122.37,8.11 201.75,8.11z"/>
   <path fill="#2B2A29" d="M3550.75 3698.92c0,41.5 20.04,80.62 41.03,101.67 48.37,48.48 177.53,38.76 244.65,40.76 159.85,4.76 86.44,10.05 268.3,0.23 113.45,-6.12 293.84,21.71 293.84,-142.66 0,-43.92 -15.83,-70.75 -38.31,-95.99 -49.48,-55.56 -141.08,-38.81 -247.2,-38.2 -58.95,0.34 -79.97,-8.69 -134.1,-8.99 -57.02,-0.31 -76.82,9.31 -134.2,9.07 -89.36,-0.37 -204.97,-15.49 -251.77,33.63 -22.95,24.1 -42.23,53.73 -42.23,100.48z"/>
   <path fill="#2B2A29" d="M2417.53 4546.73c0,141.07 120.74,143.12 226.62,142.73 117.96,-0.44 415.23,19.52 517.51,-2.98 110.52,-24.32 181.19,-274.05 -72.59,-274.05l-520.44 0c-88.36,0 -151.1,47.47 -151.1,134.31z"/>
   <path fill="#2B2A29" d="M1284.31 3673.73c0,115.67 43.44,167.88 184.67,167.88l562.41 0c26.7,0 143.61,-109.11 79.55,-213.83 -24.21,-39.58 -49.71,-59.21 -104.91,-63 -129.41,-8.87 -350.7,-0.14 -486.69,-0.18 -60.37,-0.02 -235.04,-11.5 -235.04,109.12z"/>
   <path fill="#2B2A29" d="M2417.53 3682.13c0,156.88 114.64,159.49 260.22,159.49 115.55,0 446.75,17.44 520.67,-24.95 91.84,-52.66 64.41,-177.68 13.18,-223.5 -27.48,-24.58 -55.75,-29.06 -105.43,-28.88 -44.93,0.16 -89.89,0.33 -134.82,0.51 -56.31,0.23 -77.81,-8.98 -134.11,-8.98 -55.46,0 -72.73,9 -125.63,9.07 -92.73,0.13 -196.59,-15.09 -242.12,26.5 -21.76,19.88 -51.97,52.36 -51.97,90.73z"/>
   <path fill="#2B2A29" d="M3550.75 4546.73c0,74.94 42.61,120.89 106.8,136.63 90.84,22.27 362.21,9.09 481.5,6.77 128.23,-2.49 191.32,-277.71 -34.28,-277.71l-386.13 0c-98.8,0 -167.88,37.31 -167.88,134.31z"/>
   <path fill="#2B2A29" d="M3550.75 5386.15c0,172.61 125.53,151.1 268.61,151.1 100.44,0 154.95,-51.77 156.76,-143.93 0.82,-41.74 -27.57,-69.77 -53.82,-93.31 -81.49,-73.08 -371.55,-58.77 -371.55,86.15z"/>
   <path fill="#2B2A29" d="M4692.36 3682.13l0 50.37c0,159.37 491.6,162.87 407.71,-80.11 -41.35,-119.77 -169.85,-88.64 -273.56,-87.99 -57.57,0.36 -60.65,5.14 -90.51,35.45 -19.34,19.63 -43.63,46.08 -43.63,82.28z"/>
  </g>
 </g>
</svg>
